<?xml version="1.0" encoding="UTF-8"?>
<svg width="300" height="300" viewBox="0 0 300 300" xmlns="http://www.w3.org/2000/svg">
    <defs>
        <filter id="glow">
            <feGaussianBlur stdDeviation="2" result="coloredBlur"/>
            <feMerge>
                <feMergeNode in="coloredBlur"/>
                <feMergeNode in="SourceGraphic"/>
            </feMerge>
        </filter>
    </defs>
    
    <path d="M175 40
             C160 40, 150 45, 145 55
             C140 65, 140 80, 140 90
             L125 190
             C125 200, 125 215, 120 225
             C115 235, 105 240, 90 240
             M175 40
             C160 40, 150 45, 145 55
             C140 65, 140 80, 140 90
             L125 190
             C125 200, 125 215, 120 225
             C115 235, 105 240, 90 240"
          fill="none" 
          stroke="white" 
          stroke-width="12"
          stroke-linecap="round"
          stroke-linejoin="round"
          filter="url(#glow)">
        <animate attributeName="stroke-dasharray" 
                 from="0,1000" 
                 to="1000,0" 
                 dur="3s" 
                 repeatCount="indefinite"/>
        <animate attributeName="stroke-dashoffset"
                 from="1000"
                 to="0"
                 dur="3s"
                 repeatCount="indefinite"/>
    </path>
    
    <!-- Small decorative serifs at the ends -->
    <path d="M165 35 L185 45 M80 235 L100 245"
          stroke="white"
          stroke-width="8"
          stroke-linecap="round"
          filter="url(#glow)">
        <animate attributeName="opacity"
                 values="0;1;1"
                 dur="3s"
                 repeatCount="indefinite"/>
    </path>
</svg>